<svg width="92" height="38" viewBox="0 0 92 38" fill="none" xmlns="http://www.w3.org/2000/svg">
<path d="M13.1363 6.90847C13.1363 6.82006 13.1141 6.73164 13.0699 6.64323C12.0084 0.742087 23.3534 -0.782928 26.936 0.344257C28.86 0.941002 30.7177 1.93561 32.1773 3.1954C32.7744 3.72584 36.4897 8.30088 33.7696 8.36719C33.4378 8.36719 33.0398 8.16825 32.708 7.96933C30.3196 6.2454 28.9927 3.65952 25.9408 2.93017C22.6236 2.13451 18.9083 3.26168 16.5862 5.78127C15.8564 6.57693 13.9324 8.83131 13.1363 6.90847Z" fill="#323232"/>
<path d="M78.8842 6.90847C78.9284 6.82006 78.9505 6.73164 78.9505 6.64323C80.012 0.742087 68.7334 -0.782928 65.0844 0.344257C63.2267 0.941002 61.3027 1.93561 59.8431 3.1954C59.246 3.72584 55.5971 8.30088 58.2509 8.36719C58.6489 8.36719 58.9807 8.16825 59.3124 7.96933C61.7008 6.2454 63.0277 3.65952 66.0796 2.93017C69.4632 2.13451 73.1122 3.26168 75.4342 5.78127C76.2304 6.57693 78.088 8.83131 78.8842 6.90847Z" fill="#323232"/>
<path d="M0 19.5064C0 15.727 3.05186 12.677 6.83353 12.677C10.6152 12.677 13.6671 15.727 13.6671 19.5064C13.6671 23.2858 10.6152 26.3358 6.83353 26.3358C3.05186 26.3358 0 23.2858 0 19.5064Z" fill="#F28DB3"/>
<path d="M78.1543 19.5067C78.1543 15.7273 81.2062 12.6772 84.9878 12.6772C88.7695 12.6772 91.8214 15.7273 91.8214 19.5067C91.8214 23.286 88.7695 26.3361 84.9878 26.3361C81.2062 26.3361 78.1543 23.286 78.1543 19.5067Z" fill="#F28DB3"/>
<path d="M41.7973 29.5846C40.9348 29.8498 40.5367 30.8444 40.9348 31.7063L42.1954 34.3585C42.6598 35.2868 43.1242 36.2814 43.9203 37.0107C44.6501 37.6738 45.8443 38.0716 46.8395 37.6074C47.6357 37.2759 48.1001 36.3476 48.2328 35.4857C48.277 35.2205 48.2991 34.9553 48.2991 34.6901C48.2328 34.027 48.9626 33.5629 49.626 33.8944C50.2231 34.2259 50.9529 34.4911 51.6827 34.4248C52.2798 34.3585 52.8769 34.0933 53.275 33.6291C54.2038 32.4357 53.4077 31.0433 52.4788 30.0487C51.4837 29.0541 50.3558 28.1921 49.0289 27.6617C48.5645 27.3965 48.0337 27.3965 47.5693 27.5954L41.7973 29.5846Z" fill="#F28DB3"/>
</svg>
