<svg width="81" height="50" viewBox="0 0 81 50" fill="none" xmlns="http://www.w3.org/2000/svg">
<path d="M59.4569 28.8689C61.8454 28.8689 63.504 31.0583 62.9732 33.3803C60.6512 42.6686 51.2965 49.6349 40.1506 49.6349C29.0046 49.6349 19.65 42.6686 17.3279 33.3803C16.7971 31.0583 18.5221 28.8689 20.8442 28.8689H59.4569Z" fill="#323232"/>
<path d="M22.5028 8.69986C23.697 10.7566 24.2941 13.6758 22.5028 15.2017C21.0432 16.4623 18.8538 16.1305 16.9298 15.8651C12.0203 15.3344 7.04438 16.3296 2.73196 18.718C2.46658 18.8507 2.2012 19.0497 1.86947 19.116C1.20602 19.1824 0.542575 18.8507 0.21085 18.2535C-0.31991 17.2584 0.210846 15.8651 1.13968 15.1353C2.06851 14.4055 3.26271 14.1402 4.45692 13.9411C9.36645 12.946 14.475 12.0171 19.3182 13.2113C19.5172 13.2777 19.7826 13.344 19.9816 13.2777C20.7778 13.0786 20.5788 11.8844 20.1143 11.221C18.5221 8.96527 15.8683 7.50566 13.2145 6.64318C11.0251 5.91338 4.85499 5.78069 3.46175 3.85668C1.67044 1.26923 6.9117 -0.124009 8.70301 0.0086812C13.8116 0.274061 19.9817 4.38743 22.5028 8.69986Z" fill="#323232"/>
<path d="M57.7983 8.69986C56.6041 10.7566 56.007 13.6758 57.7983 15.2017C59.2579 16.4623 61.5136 16.1305 63.4376 15.8651C68.2808 15.3344 73.323 16.3296 77.5691 18.718C77.8345 18.8507 78.1662 19.0497 78.4316 19.116C79.095 19.1824 79.7585 18.8507 80.0902 18.2535C80.6873 17.2584 80.1565 15.8651 79.2277 15.1353C78.2325 14.4055 77.0383 14.1402 75.9105 13.9411C71.0009 12.946 65.8924 12.0171 61.0492 13.2113C60.7838 13.2777 60.5184 13.344 60.3194 13.2777C59.5233 13.0786 59.7223 11.8844 60.1867 11.221C61.8453 8.96527 64.4328 7.50566 67.0866 6.64318C69.3423 5.91338 75.5124 5.78069 76.8393 3.85668C78.6306 1.26923 73.3894 -0.124009 71.598 0.0086812C66.5558 0.274061 60.3194 4.38743 57.7983 8.69986Z" fill="#323232"/>
</svg>
