<svg width="87" height="42" viewBox="0 0 87 42" fill="none" xmlns="http://www.w3.org/2000/svg">
<path d="M1.90776 7.46949C1.85997 7.3739 1.83607 7.27832 1.83607 7.18273C0.689035 0.802352 12.8763 -0.84651 16.8192 0.372215C18.8265 1.01742 20.8338 2.09277 22.4827 3.45487C23.0562 4.02839 27.0708 8.97498 24.2032 9.04667C23.7731 9.04667 23.4147 8.83159 23.0562 8.61652C20.4037 6.75259 19.0416 3.9567 15.7439 3.16811C12.0877 2.30784 8.14477 3.52656 5.56394 6.25077C4.77535 7.11104 2.76804 9.54849 1.90776 7.46949Z" fill="#153C35"/>
<path d="M82.5587 7.46949C82.5587 7.3739 82.5826 7.27832 82.6304 7.18273C83.7774 0.802352 71.5185 -0.84651 67.6473 0.372215C65.6399 1.01742 63.5609 2.09277 61.9838 3.45487C61.3385 4.02839 57.3956 8.97498 60.2632 9.04667C60.6217 9.04667 61.0518 8.83159 61.4102 8.61652C63.9911 6.75259 65.4249 3.9567 68.7226 3.16811C72.3071 2.30784 76.3217 3.52656 78.8308 6.25077C79.6194 7.11104 81.6984 9.54849 82.5587 7.46949Z" fill="#153C35"/>
<path d="M19.1132 29.765C33.8096 34.855 50.8717 34.5682 65.5681 29.4782C70.8731 27.6143 75.9631 25.0335 80.4078 21.5924C81.7699 20.5887 84.3507 18.2947 85.9996 20.3737C86.9316 21.5924 86.143 23.5997 85.4978 24.7467C83.9206 27.5426 81.1964 29.5499 78.6156 31.4139C75.3179 33.8513 71.6617 35.7869 67.8621 37.3641C61.4101 40.0166 54.4562 41.3787 47.5023 41.8089C44.8737 42 42.245 42.0478 39.6164 41.9522C39.5686 41.9522 39.4969 41.9522 39.4013 41.9522C35.6735 41.8567 31.9695 41.4743 28.2894 40.8052C21.2639 39.5865 14.4533 37.2207 8.21635 33.7079C7.54725 33.3256 6.87815 32.9193 6.20905 32.4892C3.98667 31.1271 1.83598 29.765 0.545571 27.3992C0.115433 26.539 -0.17133 25.5353 0.115428 24.6033C0.617256 23.0262 2.33781 22.4527 3.7716 22.7394C6.13736 23.2412 8.07298 24.6033 10.152 25.7504C12.3505 26.993 14.5967 28.0683 16.8908 28.9764C17.6555 29.2632 18.3963 29.526 19.1132 29.765Z" fill="#153C35"/>
</svg>
