<svg width="60" height="50" viewBox="0 0 60 50" fill="none" xmlns="http://www.w3.org/2000/svg">
<path d="M9.9951 8.46807C9.9951 13.1186 7.70455 16.8667 4.99755 16.8667C2.22113 16.8667 0 13.1186 0 8.46807C0 3.81758 2.22113 0 4.99755 0C7.70455 0 9.9951 3.81758 9.9951 8.46807Z" fill="#153C35"/>
<path d="M59.9018 8.46807C59.9018 13.1186 57.6807 16.8667 54.9043 16.8667C52.1279 16.8667 49.9067 13.1186 49.9067 8.46807C49.9067 3.81758 52.1279 0 54.9043 0C57.6807 0 59.9018 3.81758 59.9018 8.46807Z" fill="#153C35"/>
<path d="M47.0606 27.5559C51.6417 27.5559 54.557 32.2758 52.5441 36.371C48.7265 44.0062 40.1196 49.2814 30.1939 49.2814C20.1988 49.2814 11.5919 44.0062 7.84374 36.371C5.83084 32.2758 8.74608 27.5559 13.2578 27.5559H47.0606Z" fill="#153C35"/>
</svg>
